<svg width="23" height="22" viewBox="0 0 23 22" fill="none" xmlns="http://www.w3.org/2000/svg">
<path d="M5.09245 2.8345C5.09214 3.45334 4.84601 4.04671 4.40821 4.48407C3.9704 4.92144 3.37679 5.16698 2.75795 5.16667C2.13911 5.16636 1.54574 4.92023 1.10837 4.48242C0.671008 4.04462 0.425472 3.45101 0.425782 2.83217C0.426091 2.21333 0.67222 1.61996 1.11002 1.18259C1.54783 0.745227 2.14144 0.499691 2.76028 0.5C3.37912 0.50031 3.97249 0.746439 4.40986 1.18424C4.84722 1.62205 5.09276 2.21566 5.09245 2.8345ZM5.16245 6.8945H0.495781V21.5012H5.16245V6.8945ZM12.5358 6.8945H7.89245V21.5012H12.4891V13.8362C12.4891 9.56617 18.0541 9.1695 18.0541 13.8362V21.5012H22.6624V12.2495C22.6624 5.05117 14.4258 5.3195 12.4891 8.8545L12.5358 6.8945Z" fill="#FCDA00"/>
</svg>
