<svg width="158" height="46" viewBox="0 0 158 46" fill="none" xmlns="http://www.w3.org/2000/svg">
<path d="M35.8559 9.11842C32.9398 13.0202 29.9006 17.2095 29.0381 18.3595C26.1631 22.3023 25.5059 21.3577 25.3827 12.897L25.2595 6.36663L22.7131 6.24342C19.1809 6.07913 17.2916 6.6952 15.5256 8.50234C14.7041 9.36484 11.4184 13.5541 8.25592 17.8666L2.46484 25.6291L2.54699 33.4738C2.6702 40.9077 2.71127 41.2773 3.45056 41.2773C4.02556 41.2773 6.48984 38.2791 11.9934 30.8041C16.2648 25.0541 20.1256 19.9202 20.5363 19.3863C21.5631 18.2773 22.7541 18.2363 23.822 19.3041C24.6023 20.0845 24.6434 20.6595 24.6434 28.8738C24.6434 38.0738 24.7256 38.6077 26.5327 38.6077C27.2309 38.6077 29.1202 36.3077 35.0756 28.1756L42.7148 17.7023L42.6327 9.98092C42.5095 3.12199 42.4273 2.25949 41.8113 2.13627C41.3184 2.05413 39.5523 4.1077 35.8559 9.11842Z" fill="#FCDA00"/>
<path d="M54.2148 21.769V33.6797H57.5006H60.7863V27.0261C60.7863 20.619 60.8273 20.3725 61.8131 19.0583C62.9631 17.5386 66.5773 15.6083 68.2613 15.6083H69.4113V12.7333C69.4113 9.9404 69.3702 9.85826 68.3845 9.85826C66.0023 9.85826 63.0863 11.7065 61.5666 14.1708L60.7863 15.4029V12.61V9.85826H57.5006H54.2148V21.769Z" fill="#171612"/>
<path d="M80.294 10.3934C73.9279 12.0774 70.9297 15.7327 70.9297 21.7702C70.9297 27.0274 73.3529 30.5595 78.4047 32.5309C80.294 33.2292 81.6083 33.4345 85.4279 33.4345C89.535 33.4756 90.4386 33.3524 92.2047 32.5309C95.285 31.0934 97.0511 29.2042 97.9136 26.3702C98.2011 25.5077 98.119 25.4667 95.1618 25.4667C92.4922 25.4667 92.0404 25.5899 91.1779 26.4934C89.0011 28.8345 84.2368 29.4095 80.7868 27.7256C79.2672 27.0274 77.2136 24.6042 77.2136 23.5363C77.2136 23.1256 79.5136 23.0024 87.6868 23.0024H98.16V20.6202C98.119 16.1845 96.2708 13.0631 92.6565 11.297C90.8083 10.3934 89.6993 10.147 86.3725 10.0238C83.8672 9.94166 81.5672 10.0649 80.294 10.3934ZM87.5636 15.1988C89.3708 15.7327 91.3833 17.3345 91.7118 18.4845C91.9172 19.2649 91.7529 19.3059 84.5654 19.3059C77.6654 19.3059 77.2136 19.2649 77.5833 18.5667C79.185 15.6095 83.6208 14.1309 87.5636 15.1988Z" fill="#171612"/>
<path d="M98.1602 9.98371C98.1602 10.0658 100.624 15.3641 103.623 21.8123L109.085 33.4766H112.124H115.123L120.092 22.798C122.844 16.9248 125.308 11.5855 125.596 10.9694L126.089 9.81942L122.598 9.94263L119.066 10.0658L116.232 16.8426C114.63 20.5801 113.069 24.2766 112.699 25.0158L112.042 26.4533L108.633 18.2391L105.183 10.0658L101.692 9.94263C99.7619 9.90156 98.1602 9.90156 98.1602 9.98371Z" fill="#171612"/>
<path d="M135.248 10.4766C130.772 11.7087 128.472 13.5158 126.952 16.8426C125.966 18.9783 125.802 23.373 126.582 25.9605C127.281 28.3837 129.745 30.8891 132.743 32.2855C135.125 33.3533 135.7 33.4766 140.054 33.4766C145.722 33.4766 148.145 32.7783 150.938 30.3141C153.69 27.8908 154.552 25.9194 154.593 22.1819C154.593 18.3212 153.936 16.3498 151.923 14.173C149.459 11.5033 146.173 10.2301 141.368 10.0248C138.616 9.90156 136.686 10.0658 135.248 10.4766ZM143.011 15.1998C147.365 16.4319 149.377 20.7855 147.488 24.8926C146.297 27.5623 144.284 28.548 140.218 28.548C137.384 28.548 136.686 28.4248 135.372 27.5212C132.62 25.673 131.552 22.1819 132.825 19.1837C134.304 15.7337 138.698 14.0087 143.011 15.1998Z" fill="#171612"/>
</svg>
