<svg width="28" height="28" viewBox="0 0 28 28" fill="none" xmlns="http://www.w3.org/2000/svg">
<path d="M14.0072 22.1803H13.9838C13.9115 22.1803 6.67467 22.1663 4.84883 21.6705C3.84483 21.4 3.06074 20.6155 2.79083 19.6113C2.46251 17.7591 2.30396 15.8807 2.31717 13.9997C2.30869 12.1155 2.47152 10.2345 2.80367 8.37984C3.08099 7.37477 3.86163 6.58662 4.864 6.29967C6.63967 5.83301 13.677 5.83301 13.9757 5.83301H14.0002C14.0737 5.83301 21.3292 5.84701 23.1363 6.34284C24.1382 6.61469 24.9207 7.39762 25.192 8.39967C25.5308 10.2588 25.6898 12.1462 25.6668 14.0358C25.675 15.9177 25.5118 17.7964 25.1792 19.6487C24.9058 20.6516 24.1212 21.4344 23.1177 21.7055C21.3443 22.1757 14.3058 22.1803 14.0072 22.1803ZM11.6738 10.5055L11.668 17.5055L17.7487 14.0055L11.6738 10.5055Z" fill="#FCDA00"/>
</svg>
